/* XPM */
static const char * icon32x32_xpm[] = {
"32 32 280 2",
"  	c None",
". 	c #2D2D2D",
"+ 	c #181818",
"@ 	c #252525",
"# 	c #161616",
"$ 	c #000000",
"% 	c #0E0E0E",
"& 	c #D2D2D2",
"* 	c #E7E7E7",
"= 	c #B2B2B2",
"- 	c #8ABC98",
"; 	c #01E03E",
"> 	c #04E040",
", 	c #C5E6CE",
"' 	c #A8A8A8",
") 	c #E9E9E9",
"! 	c #FFFFFF",
"~ 	c #C5C5C5",
"{ 	c #BEC7C1",
"] 	c #22EF5A",
"^ 	c #00F844",
"/ 	c #74FB99",
"( 	c #BABABA",
"_ 	c #B4B4B4",
": 	c #51E379",
"< 	c #1FF058",
"[ 	c #BEC7C0",
"} 	c #7DD796",
"| 	c #06F648",
"1 	c #A0CEAD",
"2 	c #CCFED9",
"3 	c #09F84B",
"4 	c #77D992",
"5 	c #E4FEEB",
"6 	c #1BF958",
"7 	c #4FE478",
"8 	c #F2FFF5",
"9 	c #30F967",
"0 	c #40FA73",
"a 	c #C1C6C2",
"b 	c #E9BDBE",
"c 	c #F9FFFB",
"d 	c #46FA77",
"e 	c #27F961",
"f 	c #EDFEF1",
"g 	c #E94648",
"h 	c #FFD9DA",
"i 	c #FDFFFD",
"j 	c #58FA84",
"k 	c #17F955",
"l 	c #DEFEE7",
"m 	c #E94043",
"n 	c #FF6366",
"o 	c #FFF9F9",
"p 	c #C4C5C5",
"q 	c #68FB90",
"r 	c #0FF84F",
"s 	c #CEFEDB",
"t 	c #E95457",
"u 	c #FF4649",
"v 	c #FFA4A6",
"w 	c #58E17E",
"x 	c #C0FDD1",
"y 	c #E9BBBC",
"z 	c #FF4E51",
"A 	c #FFEDED",
"B 	c #5BE080",
"C 	c #06F849",
"D 	c #B6FDCA",
"E 	c #FEFEFF",
"F 	c #BFC0FF",
"G 	c #8284FF",
"H 	c #7E80FF",
"I 	c #8688E1",
"J 	c #BBBBC9",
"K 	c #EC6F71",
"L 	c #E77B7C",
"M 	c #5AE17F",
"N 	c #04F747",
"O 	c #88D59D",
"P 	c #B8B8CB",
"Q 	c #6265F0",
"R 	c #4145FF",
"S 	c #4E51F9",
"T 	c #AFB0CE",
"U 	c #A4A5C4",
"V 	c #CEB1B1",
"W 	c #FE474A",
"X 	c #FE494C",
"Y 	c #1E0809",
"Z 	c #C4C5C4",
"` 	c #54E27B",
" .	c #87D59C",
"..	c #B0B1CE",
"+.	c #5053F8",
"@.	c #8D8FDD",
"#.	c #9899D9",
"$.	c #6064F1",
"%.	c #5659F6",
"&.	c #C1C1C7",
"*.	c #B5B5CC",
"=.	c #4A4DEC",
"-.	c #FF888A",
";.	c #97292B",
">.	c #FAFFFC",
",.	c #5DFA88",
"'.	c #08F84A",
").	c #8BD49F",
"!.	c #AFAFCF",
"~.	c #5154FF",
"{.	c #6E71FF",
"].	c #EFEFFF",
"^.	c #C0C0C7",
"/.	c #575AF5",
"(.	c #A5A7FF",
"_.	c #EDEDFF",
":.	c #5559F6",
"<.	c #3D41F1",
"[.	c #E8E9E8",
"}.	c #FFE2E3",
"|.	c #FF484B",
"1.	c #F84447",
"2.	c #1C150C",
"3.	c #46FA78",
"4.	c #0DF84D",
"5.	c #BDFDCE",
"6.	c #B3B4CD",
"7.	c #4E52F9",
"8.	c #787AFF",
"9.	c #F8F8FF",
"0.	c #A3A4D4",
"a.	c #484CFF",
"b.	c #C6C7FF",
"c.	c #E3E4FF",
"d.	c #B6B8FF",
"e.	c #5659FF",
"f.	c #5255E8",
"g.	c #93E6AA",
"h.	c #FF8688",
"i.	c #DB5F48",
"j.	c #24D843",
"k.	c #CBFED9",
"l.	c #F0F1FF",
"m.	c #5558F6",
"n.	c #7376FF",
"o.	c #F9F9FF",
"p.	c #8E90FF",
"q.	c #6063F1",
"r.	c #B0B0BF",
"s.	c #05E242",
"t.	c #86FCA6",
"u.	c #D4FEDF",
"v.	c #98E79F",
"w.	c #0EEF44",
"x.	c #2BF964",
"y.	c #FBFBFF",
"z.	c #6F72FF",
"A.	c #5B5EF4",
"B.	c #F6F6FF",
"C.	c #FFEAEB",
"D.	c #EC7072",
"E.	c #FC4C4F",
"F.	c #FD4E53",
"G.	c #A5469F",
"H.	c #6353ED",
"I.	c #5B5EFF",
"J.	c #777AFF",
"K.	c #B8BAFF",
"L.	c #C3C4C6",
"M.	c #00E23E",
"N.	c #57BB46",
"O.	c #F29C95",
"P.	c #8C8EFF",
"Q.	c #5053F9",
"R.	c #FFEFEF",
"S.	c #FF5D5F",
"T.	c #FF5356",
"U.	c #FFD7D8",
"V.	c #A3E7B6",
"W.	c #53FA81",
"X.	c #28F961",
"Y.	c #36F96B",
"Z.	c #1D5B1F",
"`.	c #FC4548",
" +	c #FF4A4D",
".+	c #B29DE9",
"++	c #ABACD0",
"@+	c #FF8486",
"#+	c #F26264",
"$+	c #CBB7B8",
"%+	c #FFE8E9",
"&+	c #FF7D7F",
"*+	c #FF5255",
"=+	c #FFE3E3",
"-+	c #9F2C2D",
";+	c #D8466E",
">+	c #4645FA",
",+	c #BBBDFF",
"'+	c #CBB7B7",
")+	c #FFFCFC",
"!+	c #FF8183",
"~+	c #FF6669",
"{+	c #210C18",
"]+	c #5B45E6",
"^+	c #928BF6",
"/+	c #FF7F81",
"(+	c #FF9C9E",
"_+	c #FFF7F7",
":+	c #FF6365",
"<+	c #FF9D9F",
"[+	c #242424",
"}+	c #272727",
"|+	c #2C2EAC",
"1+	c #6745DA",
"2+	c #E54B53",
"3+	c #332A2B",
"4+	c #1E1E1E",
"5+	c #5B3536",
"6+	c #FF474A",
"7+	c #F54346",
"8+	c #332324",
"9+	c #4B2424",
"0+	c #46292A",
"a+	c #1D1D1D",
"b+	c #1B1C69",
"c+	c #3D41F0",
"d+	c #BB3A55",
"e+	c #A62E30",
"f+	c #010000",
"g+	c #060202",
"h+	c #CA373A",
"i+	c #892527",
"j+	c #992A2C",
"k+	c #AF3032",
"l+	c #D8D8D8",
"m+	c #B9BAD8",
"n+	c #3F42F5",
"o+	c #B1B3F1",
"p+	c #E9CBCB",
"q+	c #FF5053",
"r+	c #D25A5C",
"s+	c #AC999A",
"t+	c #D8BABB",
"u+	c #E26062",
"v+	c #FF5C5F",
"w+	c #E0D6D6",
"x+	c #A7A7A7",
"y+	c #E2D1D1",
"z+	c #FE4649",
"A+	c #A98484",
"B+	c #FAFAFF",
"C+	c #6568FF",
"D+	c #282B9E",
"E+	c #FFCFD0",
"F+	c #FF4F51",
"G+	c #FFDBDC",
"H+	c #FF9C9D",
"I+	c #E16466",
"J+	c #9B9DFF",
"K+	c #383BDB",
"L+	c #03030C",
"M+	c #FFE1E2",
"N+	c #ED6D6F",
"O+	c #FB4E51",
"P+	c #FF595C",
"Q+	c #FF8D8F",
"R+	c #FFE9E9",
"S+	c #FFEDEE",
"T+	c #FD4A4D",
"U+	c #F14245",
"V+	c #DADADA",
"W+	c #CCCDF0",
"X+	c #3F43F0",
"Y+	c #3E42F0",
"Z+	c #0F1039",
"`+	c #F0F0F0",
" @	c #B9B9B9",
".@	c #DB6E70",
"+@	c #E23E41",
"@@	c #0F0F0F",
". + + + + + + + + + + + + + + + + + + + + + + + + + + + + + + @ ",
"# $ $ $ $ $ $ $ $ $ $ $ $ $ $ $ $ $ $ $ $ $ $ $ $ $ $ $ $ $ $ % ",
"# $ & * * * $ $ * * * * = = * * * * * * = - ; > , * * * = ' $ % ",
"# $ ) ! ! ! $ $ ! ! ! ! ~ ~ ! ! ! ! ! ! { ] ^ / ! ! ! ! ~ ( $ % ",
"# $ _ ~ ~ ~ $ $ ~ ~ ~ ~ ~ ~ ~ ~ ~ ~ ~ ~ : ^ < [ ~ ~ ~ ~ ~ ( $ % ",
"# $ _ ~ ~ ~ $ $ ~ ~ ~ ~ ~ ~ ~ ~ ~ ~ ~ } ^ | 1 ~ ~ ~ ~ ~ ~ ( $ % ",
"# $ ) ! ! ! $ $ ! ! ! ! ~ ~ ! ! ! ! 2 3 ^ 4 ! ! ! ! ! ! ~ ( $ % ",
"# $ ) ! ! ! $ $ ! ! ! ! ~ ~ ! ! ! 5 6 ^ 7 ~ ! ! ! ! ! ! ~ ( $ % ",
"# $ ) ! ! ! $ $ ! ! ! ! ~ ~ ! ! 8 9 ^ 0 a ~ ! ! ! ! ! ! ~ ( $ % ",
"# $ b ! ! ! $ $ ! ! ! ! ~ ~ ! c d ^ e f ~ ~ ! ! ! ! ! ! ~ ( $ % ",
"# $ g h ! ! $ $ ! ! ! ! ~ ~ i j ^ k l ! ~ ~ ! ! ! ! ! ! ~ ( $ % ",
"# $ m n o ! $ $ ! ! ! ! ~ p q ^ r s ! ! ~ ~ ! ! ! ! ! ! ~ ( $ % ",
"# $ t u v ! $ $ ! ! ! ! ~ w ^ 3 x ! ! ! ~ ~ ! ! ! ! ! ! ~ ( $ % ",
"# $ y u z A $ $ ! ! ! ! B ^ C D E F G H I J ! ! ! ! ! ! ~ ( $ % ",
"# $ _ K u L $ $ ~ ~ ~ M ^ N O P Q R R R R S T ~ ~ ~ ~ ~ ~ U $ % ",
"# $ _ V W X Y $ ~ Z ` ^ N  ...+.R S @.#.$.R %.&.~ ~ ~ ~ *.=.$ % ",
"# $ ) ! -.u ;.$ >.,.^ '.).!.~.R {.].! ! ^./.R (.! ! ! _.:.<.$ % ",
"# $ [.! }.|.1.2.3.^ 4.5.6.7.R 8.9.! ! ! ~ 0.R a.b.c.d.e.R f.$ % ",
"# $ g.! ! h.i.j.^ k k.l.m.R n.o.! ! ! ! ~ ~ p.R R R R R q.r.$ % ",
"# $ s.t.u.v.w.^ x.l y.z.R A.B.! ! ! ! C.D.E.F.G.H.I.J.K.L.( $ % ",
"# $ M.^ ^ ^ ^ N.O.! P.R Q.P ! ! ! ! R.S.u u u u T.U.! ! ~ ( $ % ",
"# $ V.W.X.Y.Z.`. +.+R a.++~ ! ! ! ! @+u #+$+%+&+u *+=+! ~ ( $ % ",
"# $ ) ! ! ! $ -+;+>+R ,+~ ~ ! ! ! h u z '+~ ! )+!+u ~+o ~ ( $ % ",
"# $ ) ! ! ! $ {+]+R ^+! ~ ~ ! ! ! /+u (+~ ~ ! ! _+:+u <+~ ( $ % ",
"# $ [+}+}+}+$ |+R 1+2+3+4+4+}+}+5+6+7+8+4+4+}+}+}+9+`.X 0+a+$ % ",
"# $ $ $ $ $ b+R c+d+u e+f+$ $ g+h+u i+$ $ $ $ $ $ $ j+u k+$ $ % ",
"# $ ~ l+l+m+n+R o+p+q+u r+s+t+u+u v+w+l+x+x+l+l+l+l+y+z z+A+$ % ",
"# $ ) ! B+C+R D+! ! E+F+u u u u T.G+! ! ~ ~ ! ! ! ! ! H+u I+$ % ",
"# $ ) ! J+R K+L+! ! ! M+N+O+P+Q+R+! ! ! ~ ~ ! ! ! ! ! S+T+U+$ % ",
"# $ V+W+X+Y+Z+$ `+`+`+`+ @ @`+`+`+`+`+`+ @ @`+`+`+`+`+`+.@+@$ % ",
"# $ $ $ $ $ $ $ $ $ $ $ $ $ $ $ $ $ $ $ $ $ $ $ $ $ $ $ $ $ $ % ",
"[+@@@@@@@@@@@@@@@@@@@@@@@@@@@@@@@@@@@@@@@@@@@@@@@@@@@@@@@@@@@@a+"};
