/* XPM */
static const char *cross[]={
"16 16 3 1 7 7",
". c None",
"a c #000000",
"# c #ffffff",
"......###.......",
"......#a#.......",
"......#a#.......",
"......#a#.......",
"......#a#.......",
"......#a#.......",
"#######.#######.",
"#aaaaa...aaaaa#.",
"#######.#######.",
"......#a#.......",
"......#a#.......",
"......#a#.......",
"......#a#.......",
"......#a#.......",
"......###.......",
"................"};
