/* XPM */
static const char * icon16x16_xpm[] = {
"16 16 132 2",
"  	c None",
". 	c #171717",
"+ 	c #0C0C0C",
"@ 	c #131313",
"# 	c #0B0B0B",
"$ 	c #E8E8E8",
"% 	c #F3F3F3",
"& 	c #000000",
"* 	c #BCBCBC",
"= 	c #87C999",
"- 	c #1EED57",
"; 	c #EAF3ED",
"> 	c #B6B6B6",
", 	c #070707",
"' 	c #C5C5C5",
") 	c #B3CAB9",
"! 	c #16F252",
"~ 	c #91D3A3",
"{ 	c #C0C0C0",
"] 	c #F4F4F4",
"^ 	c #FFFFFF",
"/ 	c #F8FFFA",
"( 	c #3CFA70",
"_ 	c #63DE85",
": 	c #F4E9E9",
"< 	c #FEFFFE",
"[ 	c #5AFA86",
"} 	c #55FA82",
"| 	c #C4C5C4",
"1 	c #F47073",
"2 	c #FFFDFE",
"3 	c #6FFB95",
"4 	c #3DFA71",
"5 	c #F7FFF9",
"6 	c #F46769",
"7 	c #FFB7B9",
"8 	c #5EE082",
"9 	c #31F968",
"0 	c #DFEFF3",
"a 	c #BFC1FF",
"b 	c #B3B3CD",
"c 	c #C8A2A2",
"d 	c #F85457",
"e 	c #080202",
"f 	c #5DE081",
"g 	c #24EF5C",
"h 	c #90A4CC",
"i 	c #4C50FA",
"j 	c #6A6DED",
"k 	c #A3A4D4",
"l 	c #9A9BD0",
"m 	c #FF7E80",
"n 	c #6B2120",
"o 	c #67FB90",
"p 	c #34F96A",
"q 	c #8FA2CD",
"r 	c #5356FF",
"s 	c #D5D6FF",
"t 	c #A0A1D5",
"u 	c #5C5FFF",
"v 	c #EAEAFF",
"w 	c #BEBFFF",
"x 	c #494DF3",
"y 	c #87F1A4",
"z 	c #DADBC1",
"A 	c #43C745",
"B 	c #48FA79",
"C 	c #C9D7F5",
"D 	c #D8D9FF",
"E 	c #FFFAFA",
"F 	c #DC9293",
"G 	c #9C5ABC",
"H 	c #504FFA",
"I 	c #6C6FFF",
"J 	c #A3A4CC",
"K 	c #3EEF6E",
"L 	c #17F955",
"M 	c #5C953C",
"N 	c #E9A1B2",
"O 	c #5659FF",
"P 	c #9E9FD6",
"Q 	c #FF8587",
"R 	c #EF696C",
"S 	c #FF7C7E",
"T 	c #FF7173",
"U 	c #FFF8F8",
"V 	c #300E11",
"W 	c #6F45D3",
"X 	c #A3A3FD",
"Y 	c #FFD5D6",
"Z 	c #FF5E60",
"` 	c #C7C1C2",
" .	c #FFFEFE",
"..	c #FF888A",
"+.	c #FF9192",
"@.	c #141414",
"#.	c #222485",
"$.	c #6841C8",
"%.	c #AF3A3D",
"&.	c #100F0F",
"*.	c #151414",
"=.	c #C93E41",
"-.	c #6C2324",
";.	c #0F0F0F",
">.	c #1D1313",
",.	c #E54042",
"'.	c #441D1E",
").	c #E1E1E1",
"!.	c #BCBDEB",
"~.	c #3A3EE4",
"{.	c #E6DFEE",
"].	c #FF6D6F",
"^.	c #DF6062",
"/.	c #EE6A6C",
"(.	c #FF7476",
"_.	c #EDEBEB",
":.	c #EBEBEB",
"<.	c #F8AFB0",
"[.	c #E25D5F",
"}.	c #E3E4EC",
"|.	c #565AF7",
"1.	c #121448",
"2.	c #F7F7F7",
"3.	c #F7F0F0",
"4.	c #D78B8C",
"5.	c #F7B1B2",
"6.	c #F7F2F2",
"7.	c #BFBFBF",
"8.	c #F7F3F3",
"9.	c #EB4E51",
"0.	c #080808",
"a.	c #0E0E0E",
". + + + + + + + + + + + + + + @ ",
"# $ % & % % * % % % = - ; % > , ",
"# * ' & ' ' ' ' ' ) ! ~ ' ' { , ",
"# ] ^ & ^ ^ ' ^ / ( _ ^ ^ ^ { , ",
"# : ^ & ^ ^ ' < [ } | ^ ^ ^ { , ",
"# 1 2 & ^ ^ ' 3 4 5 ' ^ ^ ^ { , ",
"# 6 7 & ^ ^ 8 9 0 a b ^ ^ ^ { , ",
"# c d e ' f g h i j i k ' ' l , ",
"# ] m n o p q r s ^ t u v w x , ",
"# y z A B C i D ^ E F G H I J , ",
"# K L M N O P ^ ^ Q R S T U { , ",
"# ] ^ V W X ' ^ Y Z `  ...+.{ , ",
"# @ @.#.$.%.&.*.=.-.;.@.>.,.'., ",
"# ).!.~.{.].^./.(._.> :.:.<.[., ",
"# }.|.1.2.3.4.5.6.2.7.2.2.8.9., ",
"@ 0.0.0.0.0.0.0.0.0.0.0.0.0.0.a."};
