/* XPM */
static const char * icon64x64_xpm[] = {
"64 64 500 2",
"  	c None",
". 	c #555555",
"+ 	c #313131",
"@ 	c #474747",
"# 	c #2D2D2D",
"$ 	c #000000",
"% 	c #1C1C1C",
"& 	c #AAAAAA",
"* 	c #CECECE",
"= 	c #9F9F9F",
"- 	c #8AA591",
"; 	c #05C93B",
"> 	c #00C837",
", 	c #5FCB7C",
"' 	c #8E8E8E",
") 	c #D2D2D2",
"! 	c #FFFFFF",
"~ 	c #C5C5C5",
"{ 	c #3AE96A",
"] 	c #00F844",
"^ 	c #0FF84F",
"/ 	c #E8FEEE",
"( 	c #AFAFAF",
"_ 	c #7CD895",
": 	c #93FCB0",
"< 	c #AACCB3",
"[ 	c #0BF54B",
"} 	c #3EFA71",
"| 	c #FDFFFE",
"1 	c #A2A2A2",
"2 	c #C1C6C2",
"3 	c #29ED5F",
"4 	c #08F649",
"5 	c #A9CCB3",
"6 	c #59E17E",
"7 	c #74DA90",
"8 	c #84D69A",
"9 	c #01F844",
"0 	c #3FE76E",
"a 	c #A4CEAF",
"b 	c #09F64A",
"c 	c #18F254",
"d 	c #B8C8BC",
"e 	c #EFFFF3",
"f 	c #26F960",
"g 	c #05F748",
"h 	c #9BD0A9",
"i 	c #FBFFFC",
"j 	c #45FA77",
"k 	c #77D992",
"l 	c #6AFB92",
"m 	c #4EE477",
"n 	c #94FCB0",
"o 	c #2DEC61",
"p 	c #C0C6C2",
"q 	c #B2FDC7",
"r 	c #03F846",
"s 	c #20F95C",
"t 	c #B4C9BA",
"u 	c #C9FDD8",
"v 	c #0BF84C",
"w 	c #0EF84E",
"x 	c #D3FEDF",
"y 	c #D2C7C7",
"z 	c #DCFEE5",
"A 	c #16F954",
"B 	c #04F847",
"C 	c #B5FDC9",
"D 	c #D24B4D",
"E 	c #FFE3E3",
"F 	c #24F95F",
"G 	c #99FCB4",
"H 	c #D23A3C",
"I 	c #FF5D5F",
"J 	c #FFF0F0",
"K 	c #F0FFF4",
"L 	c #31F968",
"M 	c #7BFB9E",
"N 	c #FF4649",
"O 	c #FF787B",
"P 	c #FFFEFE",
"Q 	c #F7FFF9",
"R 	c #3FFA72",
"S 	c #5EFA89",
"T 	c #FEFFFE",
"U 	c #FFB2B3",
"V 	c #FAFFFB",
"W 	c #4EFA7D",
"X 	c #4AFA7A",
"Y 	c #FF4E51",
"Z 	c #FFE7E7",
"` 	c #C3C6C4",
" .	c #57FA84",
"..	c #3BFA6F",
"+.	c #F5FFF8",
"@.	c #D23C3E",
"#.	c #FF8082",
"$.	c #C4C5C4",
"%.	c #4BE475",
"&.	c #2DF965",
"*.	c #EEFFF3",
"=.	c #D28A8B",
"-.	c #FFCCCD",
";.	c #C4C5C5",
">.	c #52E37A",
",.	c #E6FEED",
"'.	c #D2D1D1",
").	c #FF7072",
"!.	c #FF6568",
"~.	c #FFFDFD",
"{.	c #53E27B",
"].	c #1FF95B",
"^.	c #E1FEE9",
"/.	c #FDFDFF",
"(.	c #D2D3FF",
"_.	c #B3B5FF",
":.	c #C1C3FF",
"<.	c #B5B5CC",
"[.	c #FFDADA",
"}.	c #FF484B",
"|.	c #FFB9BA",
"1.	c #FEFFFF",
"2.	c #55E27B",
"3.	c #19F957",
"4.	c #DBFEE5",
"5.	c #FBFBFF",
"6.	c #ABADFF",
"7.	c #5558FF",
"8.	c #4145FF",
"9.	c #5D60F3",
"0.	c #9D9ED7",
"a.	c #E97678",
"b.	c #F85558",
"c.	c #C7C1C1",
"d.	c #12F350",
"e.	c #A5CDB0",
"f.	c #ABACD0",
"g.	c #575BF5",
"h.	c #7477E8",
"i.	c #C3C3C6",
"j.	c #ADADB0",
"k.	c #CCB6B6",
"l.	c #FD4A4D",
"m.	c #DE8E8F",
"n.	c #4FE378",
"o.	c #11F44F",
"p.	c #A4CDAF",
"q.	c #9192DC",
"r.	c #4549FD",
"s.	c #7173EA",
"t.	c #C2C2C6",
"u.	c #5E60D3",
"v.	c #E57E80",
"w.	c #F95355",
"x.	c #090203",
"y.	c #4AE574",
"z.	c #10F44F",
"A.	c #A3CEAF",
"B.	c #C4C4C5",
"C.	c #7C7FE5",
"D.	c #474BFC",
"E.	c #6E71EB",
"F.	c #6164F1",
"G.	c #4246FF",
"H.	c #8E90DD",
"I.	c #7375E9",
"J.	c #3A3DE3",
"K.	c #CABABA",
"L.	c #FC4C4E",
"M.	c #701F20",
"N.	c #43E770",
"O.	c #7376E9",
"P.	c #BABBCA",
"Q.	c #ADADD0",
"R.	c #5256F7",
"S.	c #B6B7CB",
"T.	c #8385E2",
"U.	c #FF9C9D",
"V.	c #E73F42",
"W.	c #F4FFF7",
"X.	c #47FA78",
"Y.	c #15F352",
"Z.	c #A6CDB1",
"`.	c #8082FF",
" +	c #4A4DFF",
".+	c #BFC0FF",
"++	c #B2B3CD",
"@+	c #494CFC",
"#+	c #8284FF",
"$+	c #9193DC",
"%+	c #FF4F52",
"&+	c #6E1E1F",
"*+	c #ECFEF1",
"=+	c #38F96D",
"-+	c #C4C4C6",
";+	c #6F72EA",
">+	c #5256FF",
",+	c #DBDCFF",
"'+	c #9092DC",
")+	c #D1D2FF",
"!+	c #B5B7FF",
"~+	c #FF9C9E",
"{+	c #E43F41",
"]+	c #080202",
"^+	c #DDFEE6",
"/+	c #27F960",
"(+	c #28F961",
"_+	c #7577E8",
":+	c #585CFF",
"<+	c #E4E4FF",
"[+	c #5C5FF3",
"}+	c #5D60FF",
"|+	c #F4F4FF",
"1+	c #F6F6FF",
"2+	c #9496FF",
"3+	c #3B3FE2",
"4+	c #FFEFF0",
"5+	c #6A1D1E",
"6+	c #00350E",
"7+	c #34F96A",
"8+	c #EAFEF0",
"9+	c #7E80E4",
"0+	c #5B5FFF",
"a+	c #EAEAFF",
"b+	c #A7A8D2",
"c+	c #6568FF",
"d+	c #C0C1FF",
"e+	c #D0D1FF",
"f+	c #9396FF",
"g+	c #5154FF",
"h+	c #4448FE",
"i+	c #8889C0",
"j+	c #2C2D2C",
"k+	c #81D097",
"l+	c #FF999B",
"m+	c #8F8041",
"n+	c #00F042",
"o+	c #42FA74",
"p+	c #F1FFF5",
"q+	c #575AFF",
"r+	c #E7E8FF",
"s+	c #9092FF",
"t+	c #9C9ED7",
"u+	c #06CC3C",
"v+	c #C7FDD6",
"w+	c #FFEEEE",
"x+	c #FF4D50",
"y+	c #FA4A49",
"z+	c #73A846",
"A+	c #5CFA87",
"B+	c #F9FFFA",
"C+	c #C4C5FF",
"D+	c #4246FE",
"E+	c #E3E3FF",
"F+	c #F9F9FF",
"G+	c #6D70FF",
"H+	c #5255F8",
"I+	c #A9AAD1",
"J+	c #00CC38",
"K+	c #14F953",
"L+	c #C4FDD3",
"M+	c #DCAA93",
"N+	c #36D245",
"O+	c #DADBFF",
"P+	c #494DFF",
"Q+	c #D9DAFF",
"R+	c #CDB4B4",
"S+	c #F65A5D",
"T+	c #FD494C",
"U+	c #FF4D4F",
"V+	c #F6606B",
"W+	c #8146C1",
"X+	c #4D51FF",
"Y+	c #9D9FFF",
"Z+	c #BFBFC8",
"`+	c #02F846",
" @	c #52FA80",
".@	c #B7FDCA",
"+@	c #7DFBA0",
"@@	c #09F84B",
"#@	c #09F84A",
"$@	c #A4FCBC",
"%@	c #EDEEFF",
"&@	c #4347FE",
"*@	c #9FA0D6",
"=@	c #FFADAE",
"-@	c #FD4A4C",
";@	c #D44672",
">@	c #934DB7",
",@	c #7677FD",
"'@	c #6E72FF",
")@	c #7B7DFF",
"!@	c #9698FF",
"~@	c #C3C4FF",
"{@	c #F8F8FF",
"]@	c #1DE445",
"^@	c #CB7F5D",
"/@	c #FFFAFA",
"(@	c #6B6EFF",
"_@	c #FFA1A3",
":@	c #FF7C7E",
"<@	c #FFF7F7",
"[@	c #51C046",
"}@	c #ED5349",
"|@	c #FFB1B3",
"1@	c #898BFF",
"2@	c #7B7DE5",
"3@	c #FFBEBF",
"4@	c #FF7274",
"5@	c #FFF5F5",
"6@	c #90D0A1",
"7@	c #00E13E",
"8@	c #5D7634",
"9@	c #FF585A",
"0@	c #B1B2FF",
"a@	c #6669EF",
"b@	c #FFECEC",
"c@	c #FF5255",
"d@	c #FB4E51",
"e@	c #DB9597",
"f@	c #C8BEBE",
"g@	c #FFF1F2",
"h@	c #FF5557",
"i@	c #FF7779",
"j@	c #FFFCFC",
"k@	c #84FCA5",
"l@	c #58FA85",
"m@	c #8CFCAB",
"n@	c #000E04",
"o@	c #180607",
"p@	c #F44346",
"q@	c #D483AF",
"r@	c #4549FF",
"s@	c #5F62FF",
"t@	c #BDBDC8",
"u@	c #FF8B8D",
"v@	c #D1AAAA",
"w@	c #FFECED",
"x@	c #FF6B6D",
"y@	c #FF9192",
"z@	c #842426",
"A@	c #EF4658",
"B@	c #5545EC",
"C@	c #4B4FFF",
"D@	c #E1E1FF",
"E@	c #FFE0E0",
"F@	c #FF474A",
"G@	c #FFF4F4",
"H@	c #FF6E70",
"I@	c #FFBDBE",
"J@	c #0E0404",
"K@	c #EB4043",
"L@	c #FE464A",
"M@	c #7645CC",
"N@	c #C2C3FF",
"O@	c #FF8688",
"P@	c #FF6769",
"Q@	c #C6C3C3",
"R@	c #FF5F61",
"S@	c #FF5053",
"T@	c #A445A0",
"U@	c #9A9CFF",
"V@	c #FFC5C6",
"W@	c #FFDFDF",
"X@	c #15123F",
"Y@	c #4445FC",
"Z@	c #6F51DF",
"`@	c #FCFAFD",
" #	c #FF8A8C",
".#	c #FF676A",
"+#	c #FFB3B4",
"@#	c #414141",
"##	c #4F4F4F",
"$#	c #050615",
"%#	c #3A3EE4",
"&#	c #5145F0",
"*#	c #EB465C",
"=#	c #B45D5E",
"-#	c #3D3D3D",
";#	c #735859",
">#	c #FF494C",
",#	c #7D3F40",
"'#	c #4F4E4E",
")#	c #BE373A",
"!#	c #FB5154",
"~#	c #4C4141",
"{#	c #363636",
"]#	c #000002",
"^#	c #2F32B7",
"/#	c #4245FE",
"(#	c #CA467C",
"_#	c #F84447",
":#	c #2D0C0D",
"<#	c #AA2E30",
"[#	c #D53A3D",
"}#	c #020101",
"|#	c #210909",
"1#	c #8E2729",
"2#	c #1E2077",
"3#	c #9845A7",
"4#	c #D63B3D",
"5#	c #0D0404",
"6#	c #451314",
"7#	c #571819",
"8#	c #7C2223",
"9#	c #F94447",
"0#	c #21090A",
"a#	c #0D0E33",
"b#	c #4043F9",
"c#	c #3134C2",
"d#	c #54181C",
"e#	c #B73234",
"f#	c #060202",
"g#	c #170607",
"h#	c #E43E41",
"i#	c #CB383A",
"j#	c #010000",
"k#	c #090202",
"l#	c #DF3D40",
"m#	c #A32D2F",
"n#	c #919191",
"o#	c #B0B0B0",
"p#	c #A8A8B0",
"q#	c #373AD8",
"r#	c #5054FF",
"s#	c #B2B2C6",
"t#	c #F58385",
"u#	c #C74648",
"v#	c #8B8383",
"w#	c #888888",
"x#	c #B09F9F",
"y#	c #DA4648",
"z#	c #D1AAAB",
"A#	c #DB9899",
"B#	c #FD4548",
"C#	c #927475",
"D#	c #797979",
"E#	c #8C8FFF",
"F#	c #FFF9F9",
"G#	c #FF6D6F",
"H#	c #F65A5C",
"I#	c #D79C9D",
"J#	c #CAB9B9",
"K#	c #FFDFE0",
"L#	c #FFA9AA",
"M#	c #FF5558",
"N#	c #FF9E9F",
"O#	c #FFFDFE",
"P#	c #EA7375",
"Q#	c #272998",
"R#	c #FFEEEF",
"S#	c #FF6265",
"T#	c #FF797C",
"U#	c #FFC4C5",
"V#	c #FE484A",
"W#	c #B79E9E",
"X#	c #ECECFF",
"Y#	c #4F53FF",
"Z#	c #373AD7",
"`#	c #03030A",
" $	c #FFEDED",
".$	c #FF696B",
"+$	c #FF7A7C",
"@$	c #D16667",
"#$	c #787BFF",
"$$	c #3F43F9",
"%$	c #0D0D32",
"&$	c #FF9092",
"*$	c #FFA8AA",
"=$	c #FFBCBD",
"-$	c #E23F42",
";$	c #B4B6FF",
">$	c #1E2076",
",$	c #CFAEAF",
"'$	c #E77B7C",
")$	c #F55B5D",
"!$	c #FA5053",
"~$	c #FF5E61",
"{$	c #FF7B7E",
"]$	c #FFAEB0",
"^$	c #FFF1F1",
"/$	c #FFFBFC",
"($	c #F85557",
"_$	c #E33E41",
":$	c #010102",
"<$	c #DF8C8D",
"[$	c #B9B9B9",
"}$	c #E0E0E0",
"|$	c #696BE0",
"1$	c #393CE0",
"2$	c #3D41E0",
"3$	c #090922",
"4$	c #ADADAD",
"5$	c #B0A6A6",
"6$	c #DE4143",
"7$	c #E03D40",
"8$	c #C73739",
"9$	c #464646",
"0$	c #1F1F1F",
"a$	c #373737",
". + + + + + + + + + + + + + + + + + + + + + + + + + + + + + + + + + + + + + + + + + + + + + + + + + + + + + + + + + + + + + + @ ",
"# $ $ $ $ $ $ $ $ $ $ $ $ $ $ $ $ $ $ $ $ $ $ $ $ $ $ $ $ $ $ $ $ $ $ $ $ $ $ $ $ $ $ $ $ $ $ $ $ $ $ $ $ $ $ $ $ $ $ $ $ $ $ % ",
"# $ $ $ $ $ $ $ $ $ $ $ $ $ $ $ $ $ $ $ $ $ $ $ $ $ $ $ $ $ $ $ $ $ $ $ $ $ $ $ $ $ $ $ $ $ $ $ $ $ $ $ $ $ $ $ $ $ $ $ $ $ $ % ",
"# $ $ $ $ $ $ $ $ $ $ $ $ $ $ $ $ $ $ $ $ $ $ $ $ $ $ $ $ $ $ $ $ $ $ $ $ $ $ $ $ $ $ $ $ $ $ $ $ $ $ $ $ $ $ $ $ $ $ $ $ $ $ % ",
"# $ $ $ & * * * * * * * $ $ $ $ * * * * * * * * = = = = * * * * * * * * * * * * = = = - ; > > > , * * * * * * * = = = ' $ $ $ % ",
"# $ $ $ ) ! ! ! ! ! ! ! $ $ $ $ ! ! ! ! ! ! ! ! ~ ~ ~ ~ ! ! ! ! ! ! ! ! ! ! ! ! ~ ~ ~ { ] ] ] ^ / ! ! ! ! ! ! ! ~ ~ ~ ( $ $ $ % ",
"# $ $ $ ) ! ! ! ! ! ! ! $ $ $ $ ! ! ! ! ! ! ! ! ~ ~ ~ ~ ! ! ! ! ! ! ! ! ! ! ! ! ~ ~ _ ] ] ] ] : ! ! ! ! ! ! ! ! ~ ~ ~ ( $ $ $ % ",
"# $ $ $ ) ! ! ! ! ! ! ! $ $ $ $ ! ! ! ! ! ! ! ! ~ ~ ~ ~ ! ! ! ! ! ! ! ! ! ! ! ! ~ < [ ] ] ] } | ! ! ! ! ! ! ! ! ~ ~ ~ ( $ $ $ % ",
"# $ $ $ 1 ~ ~ ~ ~ ~ ~ ~ $ $ $ $ ~ ~ ~ ~ ~ ~ ~ ~ ~ ~ ~ ~ ~ ~ ~ ~ ~ ~ ~ ~ ~ ~ ~ ~ 2 3 ] ] ] 4 5 ~ ~ ~ ~ ~ ~ ~ ~ ~ ~ ~ ~ ( $ $ $ % ",
"# $ $ $ 1 ~ ~ ~ ~ ~ ~ ~ $ $ $ $ ~ ~ ~ ~ ~ ~ ~ ~ ~ ~ ~ ~ ~ ~ ~ ~ ~ ~ ~ ~ ~ ~ ~ ~ 6 ] ] ] ] 7 ~ ~ ~ ~ ~ ~ ~ ~ ~ ~ ~ ~ ~ ( $ $ $ % ",
"# $ $ $ 1 ~ ~ ~ ~ ~ ~ ~ $ $ $ $ ~ ~ ~ ~ ~ ~ ~ ~ ~ ~ ~ ~ ~ ~ ~ ~ ~ ~ ~ ~ ~ ~ ~ 8 9 ] ] ] 0 ~ ~ ~ ~ ~ ~ ~ ~ ~ ~ ~ ~ ~ ~ ( $ $ $ % ",
"# $ $ $ 1 ~ ~ ~ ~ ~ ~ ~ $ $ $ $ ~ ~ ~ ~ ~ ~ ~ ~ ~ ~ ~ ~ ~ ~ ~ ~ ~ ~ ~ ~ ~ ~ a b ] ] ] c d ~ ~ ~ ~ ~ ~ ~ ~ ~ ~ ~ ~ ~ ~ ( $ $ $ % ",
"# $ $ $ ) ! ! ! ! ! ! ! $ $ $ $ ! ! ! ! ! ! ! ! ~ ~ ~ ~ ! ! ! ! ! ! ! ! ! e f ] ] ] g h ! ! ! ! ! ! ! ! ! ! ! ! ~ ~ ~ ( $ $ $ % ",
"# $ $ $ ) ! ! ! ! ! ! ! $ $ $ $ ! ! ! ! ! ! ! ! ~ ~ ~ ~ ! ! ! ! ! ! ! ! i j ] ] ] ] k ~ ! ! ! ! ! ! ! ! ! ! ! ! ~ ~ ~ ( $ $ $ % ",
"# $ $ $ ) ! ! ! ! ! ! ! $ $ $ $ ! ! ! ! ! ! ! ! ~ ~ ~ ~ ! ! ! ! ! ! ! ! l ] ] ] ] m ~ ~ ! ! ! ! ! ! ! ! ! ! ! ! ~ ~ ~ ( $ $ $ % ",
"# $ $ $ ) ! ! ! ! ! ! ! $ $ $ $ ! ! ! ! ! ! ! ! ~ ~ ~ ~ ! ! ! ! ! ! ! n ] ] ] ] o p ~ ~ ! ! ! ! ! ! ! ! ! ! ! ! ~ ~ ~ ( $ $ $ % ",
"# $ $ $ ) ! ! ! ! ! ! ! $ $ $ $ ! ! ! ! ! ! ! ! ~ ~ ~ ~ ! ! ! ! ! ! q r ] ] ] s t ~ ~ ~ ! ! ! ! ! ! ! ! ! ! ! ! ~ ~ ~ ( $ $ $ % ",
"# $ $ $ ) ! ! ! ! ! ! ! $ $ $ $ ! ! ! ! ! ! ! ! ~ ~ ~ ~ ! ! ! ! ! u v ] ] ] w x ~ ~ ~ ~ ! ! ! ! ! ! ! ! ! ! ! ! ~ ~ ~ ( $ $ $ % ",
"# $ $ $ y ! ! ! ! ! ! ! $ $ $ $ ! ! ! ! ! ! ! ! ~ ~ ~ ~ ! ! ! ! z A ] ] ] B C ! ~ ~ ~ ~ ! ! ! ! ! ! ! ! ! ! ! ! ~ ~ ~ ( $ $ $ % ",
"# $ $ $ D E ! ! ! ! ! ! $ $ $ $ ! ! ! ! ! ! ! ! ~ ~ ~ ~ ! ! ! / F ] ] ] ] G ! ! ~ ~ ~ ~ ! ! ! ! ! ! ! ! ! ! ! ! ~ ~ ~ ( $ $ $ % ",
"# $ $ $ H I J ! ! ! ! ! $ $ $ $ ! ! ! ! ! ! ! ! ~ ~ ~ ~ ! ! K L ] ] ] ] M ! ! ! ~ ~ ~ ~ ! ! ! ! ! ! ! ! ! ! ! ! ~ ~ ~ ( $ $ $ % ",
"# $ $ $ H N O P ! ! ! ! $ $ $ $ ! ! ! ! ! ! ! ! ~ ~ ~ ~ ! Q R ] ] ] ] S T ! ! ! ~ ~ ~ ~ ! ! ! ! ! ! ! ! ! ! ! ! ~ ~ ~ ( $ $ $ % ",
"# $ $ $ H N N U ! ! ! ! $ $ $ $ ! ! ! ! ! ! ! ! ~ ~ ~ ~ V W ] ] ] ] X V ! ! ! ! ~ ~ ~ ~ ! ! ! ! ! ! ! ! ! ! ! ! ~ ~ ~ ( $ $ $ % ",
"# $ $ $ H N N Y Z ! ! ! $ $ $ $ ! ! ! ! ! ! ! ! ~ ~ ~ `  .] ] ] ] ..+.! ! ! ! ! ~ ~ ~ ~ ! ! ! ! ! ! ! ! ! ! ! ! ~ ~ ~ ( $ $ $ % ",
"# $ $ $ @.N N N #.! ! ! $ $ $ $ ! ! ! ! ! ! ! ! ~ ~ $.%.] ] ] ] &.*.! ! ! ! ! ! ~ ~ ~ ~ ! ! ! ! ! ! ! ! ! ! ! ! ~ ~ ~ ( $ $ $ % ",
"# $ $ $ =.N N N N -.! ! $ $ $ $ ! ! ! ! ! ! ! ! ~ ;.>.] ] ] ] F ,.! ! ! ! ! ! ! ~ ~ ~ ~ ! ! ! ! ! ! ! ! ! ! ! ! ~ ~ ~ ( $ $ $ % ",
"# $ $ $ '.).N N N !.~.! $ $ $ $ ! ! ! ! ! ! ! ! ;.{.] ] ] ] ].^.! ! ! /.(._._.:.<.~ ~ ~ ! ! ! ! ! ! ! ! ! ! ! ! ~ ~ ~ ( $ $ $ % ",
"# $ $ $ ) [.}.N N N |.! $ $ $ $ ! ! ! ! ! ! ! 1.2.] ] ] ] 3.4.! ! 5.6.7.8.8.8.8.8.9.0.~ ! ! ! ! ! ! ! ! ! ! ! ! ~ ~ ~ ( $ $ $ % ",
"# $ $ $ 1 ~ a.N N N b.c.$ $ $ $ ~ ~ ~ ~ ~ ~ ;.2.] ] ] ] d.e.~ ~ f.g.8.8.8.8.8.8.8.8.8.h.i.~ ~ ~ ~ ~ ~ ~ ~ ~ ~ ~ ~ ~ ~ j.$ $ $ % ",
"# $ $ $ 1 ~ k.l.N N N m.$ $ $ $ ~ ~ ~ ~ ~ $.n.] ] ] ] o.p.~ ~ q.r.8.8.8.8.8.8.8.8.8.8.8.s.~ ~ ~ ~ ~ ~ ~ ~ ~ ~ ~ ~ ~ t.u.$ $ $ % ",
"# $ $ $ 1 ~ ~ v.N N N w.x.$ $ $ ~ ~ ~ ~ ` y.] ] ] ] z.A.~ B.C.8.8.8.8.8.D.E.h.F.G.8.8.8.8.H.~ ~ ~ ~ ~ ~ ~ ~ ~ ~ ~ ~ I.J.$ $ $ % ",
"# $ $ $ 1 ~ ~ K.L.N N N M.$ $ $ ~ ~ ~ p N.] ] ] ] d.A.~ i.O.8.8.8.8.8.O.P.~ ~ ~ Q.R.8.8.8.D.S.~ ~ ~ ~ ~ ~ ~ ~ ~ ~ T.8.J.$ $ $ % ",
"# $ $ $ ) ! ! ! U.N N N V.x.$ $ ! ! W.X.] ] ] ] Y.Z.~ i.`.8.8.8.8. +.+! ! ! ! ! ~ ++@+8.8.8.#+! ! ! ! ! ! ! ! ! $+8.8.J.$ $ $ % ",
"# $ $ $ ) ! ! ! J %+N N N &+$ $ ! *+=+] ] ] ] ].< ~ -+;+8.8.8.8.>+,+! ! ! ! ! ! ~ ~ '+8.8.8.8.)+! ! ! ! ! ! ! !+G.8.8.J.$ $ $ % ",
"# $ $ $ ) ! ! ! ! ~+N N N {+]+$ ^+/+] ] ] ] (+^.~ B._+8.8.8.8.:+<+! ! ! ! ! ! ! ~ ~ B.[+8.8.8.}+|+! ! ! ! 1+2+8.8.8.8.3+$ $ $ % ",
"# $ $ $ ) ! ! ! ! 4+Y N N N 5+6+A ] ] ] ] 7+8+! ~ 9+8.8.8.8.0+a+! ! ! ! ! ! ! ! ~ ~ ~ b+G.8.8.8.c+d+e+.+f+g+8.8.8.8.h+i+$ $ $ % ",
"j+$ $ $ k+! ! ! ! ! l+N N N m+n+] ] ] ] o+p+! ! H.8.8.8.8.q+r+! ! ! ! ! ! ! ! ! ~ ~ ~ ~ s+8.8.8.8.8.8.8.8.8.8.8.8.r.t+( $ $ $ % ",
"j+$ $ $ u+v+! ! ! ! w+x+y+z+] ] ] ] ] A+B+! ! C+D+8.8.8.>+E+! ! ! ! ! ! ! ! ! ! ~ ~ ~ ~ F+G+8.8.8.8.8.8.8.8.8.8.H+I+~ ( $ $ $ % ",
"# $ $ $ J+K+L+! ! ! ! M+N+] ] ] ] ] M T ! ! O+P+8.8.8.D.Q+! ! ! ! ! ! ! ! ! ! ! R+v.S+T+U+V+W+8.8.8.8.8.8.8.X+Y+Z+~ ~ ( $ $ $ % ",
"# $ $ $ J+] `+ @G .@+@@@] ] ] ] #@$@! ! ! %@q+8.8.8.&@*@! ! ! ! ! ! ! ! ! ! ! =@-@N N N N N N ;@>@,@'@)@!@~@{@! ~ ~ ~ ( $ $ $ % ",
"# $ $ $ J+] ] ] ] ] ] ] ] ] ] ]@^@/@! ! F+(@8.8.8.8.q.~ ! ! ! ! ! ! ! ! ! ! _@N N N N N N N N N N :@<@! ! ! ! ! ~ ~ ~ ( $ $ $ % ",
"# $ $ $ J+] ] ] ] ] ] ] ] ] [@}@N |@! ! 1@8.8.8.8.2@~ ~ ! ! ! ! ! ! ! ! ! 3@N N N N N N N N N N N N 4@5@! ! ! ! ~ ~ ~ ( $ $ $ % ",
"# $ $ $ 6@&.] ] ] ] ] ] 7@8@N N N 9@<@0@8.8.8.8.a@i.~ ~ ! ! ! ! ! ! ! ! b@c@N N N d@e@f@g@U h@N N N N i@j@! ! ! ~ ~ ~ ( $ $ $ % ",
"# $ $ $ ) ! v+k@l@X.X m@n@o@p@N N N q@r@8.8.8.s@t@~ ~ ~ ! ! ! ! ! ! ! ! u@N N N l.v@~ ~ ! ! w@x@N N N N y@! ! ! ~ ~ ~ ( $ $ $ % ",
"# $ $ $ ) ! ! ! ! ! ! ! $ $ z@N N A@B@8.8.8.C@D@~ ~ ~ ~ ! ! ! ! ! ! ! E@F@N N N m.~ ~ ~ ! ! ! G@H@N N N N I@! ! ~ ~ ~ ( $ $ $ % ",
"# $ $ $ ) ! ! ! ! ! ! ! $ $ J@K@L@M@8.8.8.G.N@! ~ ~ ~ ~ ! ! ! ! ! ! ! O@N N N P@Q@~ ~ ~ ! ! ! ! J R@N N N S@Z ! ~ ~ ~ ( $ $ $ % ",
"# $ $ $ ) ! ! ! ! ! ! ! $ $ $ M.T@8.8.8.8.U@! ! ~ ~ ~ ~ ! ! ! ! ! ! E }.N N N V@~ ~ ~ ~ ! ! ! ! ! W@x+N N N i@P ~ ~ ~ ( $ $ $ % ",
"# $ $ $ ) ! ! ! ! ! ! ! $ $ $ X@Y@8.8.8.Z@`@! ! ~ ~ ~ ~ ! ! ! ! ! !  #N N N .#P ~ ~ ~ ~ ! ! ! ! ! ! +#N N N N |.~ ~ ~ ( $ $ $ % ",
"# $ $ $ @###############$ $ $#%#8.8.8.&#*#=#####-#-#-#-###########;#>#N N N ,###-#-#-#-#############'#)#N N N !#~#-#-#{#$ $ $ % ",
"# $ $ $ $ $ $ $ $ $ $ $ $ ]#^#8.8.8./#(#N _#:#$ $ $ $ $ $ $ $ $ $ <#N N N [#}#$ $ $ $ $ $ $ $ $ $ $ $ |#p@N N N 1#$ $ $ $ $ $ % ",
"# $ $ $ $ $ $ $ $ $ $ $ $ 2#8.8.8.8.3#N N N 4#5#$ $ $ $ $ $ $ $ 6#N N N N 7#$ $ $ $ $ $ $ $ $ $ $ $ $ $ 8#N N N 9#0#$ $ $ $ $ % ",
"# $ $ $ $ $ $ $ $ $ $ $ a#b#8.8.8.c#d#N N N N e#f#$ $ $ $ $ $ g#h#N N N i#j#$ $ $ $ $ $ $ $ $ $ $ $ $ $ k#l#N N N m#$ $ $ $ $ % ",
"# $ $ $ n#o#o#o#o#o#o#p#q#8.8.8.r#s#o#t#N N N N u#v#w#w#o#o#x#y#N N N }.z#o#o#o#w#w#w#w#o#o#o#o#o#o#o#o#o#A#N N N B#C#D#$ $ $ % ",
"# $ $ $ ) ! ! ! ! ! ! E#8.8.8.8.C+! ! F#G#N N N N H#I#J#K#L#M#N N N N N#! ! ! ! ~ ~ ~ ~ ! ! ! ! ! ! ! ! ! O#.#N N N P#( $ $ $ % ",
"# $ $ $ ) ! ! ! ! ! ~@8.8.8.8.Q#! ! ! ! R#S#N N N N N N N N N N N N T#~.! ! ! ! ~ ~ ~ ~ ! ! ! ! ! ! ! ! ! ! U#N N N V#W#$ $ $ % ",
"# $ $ $ ) ! ! ! ! X#Y#8.8.8.Z#`#! ! ! ! !  $.$N N N N N N N N N N +$<@! ! ! ! ! ~ ~ ~ ~ ! ! ! ! ! ! ! ! ! ! P .#N N N @$$ $ $ % ",
"# $ $ $ ) ! ! ! ! #$8.8.8.$$%$$ ! ! ! ! ! ! <@&$F@N N N N N N Y *$~.! ! ! ! ! ! ~ ~ ~ ~ ! ! ! ! ! ! ! ! ! ! ! =$N N N -$$ $ $ % ",
"# $ $ $ ) ! ! ! ;$8.8.8.8.>$$ $ ! ! ! ! ! ! ! ! ,$'$)$!$~${$]$^$! ! ! ! ! ! ! ! ~ ~ ~ ~ ! ! ! ! ! ! ! ! ! ! ! /$($N N _$$ $ $ % ",
"# $ $ $ ) ! ! r+C@8.8.8.c#:$$ $ ! ! ! ! ! ! ! ! ~ ~ ~ ~ ! ! ! ! ! ! ! ! ! ! ! ! ~ ~ ~ ~ ! ! ! ! ! ! ! ! ! ! ! ! <$N N _$$ $ $ % ",
"# $ $ $ [$}$}$|$1$1$1$2$3$$ $ $ }$}$}$}$}$}$}$}$4$4$4$4$}$}$}$}$}$}$}$}$}$}$}$}$4$4$4$4$}$}$}$}$}$}$}$}$}$}$}$}$5$6$7$8$$ $ $ % ",
"# $ $ $ $ $ $ $ $ $ $ $ $ $ $ $ $ $ $ $ $ $ $ $ $ $ $ $ $ $ $ $ $ $ $ $ $ $ $ $ $ $ $ $ $ $ $ $ $ $ $ $ $ $ $ $ $ $ $ $ $ $ $ % ",
"# $ $ $ $ $ $ $ $ $ $ $ $ $ $ $ $ $ $ $ $ $ $ $ $ $ $ $ $ $ $ $ $ $ $ $ $ $ $ $ $ $ $ $ $ $ $ $ $ $ $ $ $ $ $ $ $ $ $ $ $ $ $ % ",
"# $ $ $ $ $ $ $ $ $ $ $ $ $ $ $ $ $ $ $ $ $ $ $ $ $ $ $ $ $ $ $ $ $ $ $ $ $ $ $ $ $ $ $ $ $ $ $ $ $ $ $ $ $ $ $ $ $ $ $ $ $ $ % ",
"9$0$0$0$0$0$0$0$0$0$0$0$0$0$0$0$0$0$0$0$0$0$0$0$0$0$0$0$0$0$0$0$0$0$0$0$0$0$0$0$0$0$0$0$0$0$0$0$0$0$0$0$0$0$0$0$0$0$0$0$0$0$0$a$"};
