/* XPM */
static const char * notfound_xpm[] = {
"16 16 51 1",
" 	c None",
".	c #FF0000",
"+	c #FF0D0D",
"@	c #FF0606",
"#	c #FF7979",
"$	c #FF6969",
"%	c #FF0C0C",
"&	c #FFEBEB",
"*	c #FFE3E3",
"=	c #FF0808",
"-	c #FF7676",
";	c #FFFFFF",
">	c #FF6E6E",
",	c #FF0B0B",
"'	c #FFE9E9",
")	c #020202",
"!	c #FFE6E6",
"~	c #FF0A0A",
"{	c #FF7272",
"]	c #000000",
"^	c #FF7373",
"/	c #FFE7E7",
"(	c #FF6F6F",
"_	c #FF7878",
":	c #FFE5E5",
"<	c #0D0D0D",
"[	c #FFECEC",
"}	c #FF0E0E",
"|	c #FF6C6C",
"1	c #262626",
"2	c #242424",
"3	c #FF7D7D",
"4	c #FF0707",
"5	c #E9E9E9",
"6	c #FFEFEF",
"7	c #FF1111",
"8	c #FF6868",
"9	c #7A7A7A",
"0	c #FF8282",
"a	c #FFE0E0",
"b	c #FFF1F1",
"c	c #FF1313",
"d	c #FF6565",
"e	c #FDFDFD",
"f	c #FF8888",
"g	c #FF0909",
"h	c #FF0505",
"i	c #FF0404",
"j	c #FF0303",
"k	c #FF0202",
"l	c #FF0101",
"       .        ",
"       +@       ",
"      .#$.      ",
"      %&*=      ",
"     .-;;>.     ",
"     ,'))!~     ",
"    .{;]];^.    ",
"    ~/;]];'%    ",
"   .(;;]];;_.   ",
"   =:;;<<;;[}   ",
"  .|;;;12;;;3.  ",
"  4*;;;55;;;67  ",
" .8;;;;99;;;;0. ",
" @a;;;;]];;;;bc ",
".d;;;;;ee;;;;;f.",
".4~g=4@@hijjkl.."};
