/* XPM */
static const char *rotate[]={
"16 16 3 1 7 7",
". c None",
"a c #000000",
"# c #ffffff",
"................",
"....##....##....",
"..##aa#..#aa##..",
"##aaaa#..#aaaa##",
"aaaaaa#..#aaaaaa",
"aaaaaa#..#aaaaaa",
"#aaaaa#..#aaaaa#",
"#a##aa#..#aa##a#",
"#a#.##....##.#a#",
"#a#..........#a#",
"#aa##......##aa#",
".#aaa######aaa#.",
"..#aaaaaaaaaa#..",
"...##aaaaaa##...",
".....######.....",
"................"};
