/* XPM */
static const char *size[]={
"16 16 3 1 7 7",
". c None",
"a c #000000",
"# c #ffffff",
"......#a#.......",
".....#aaa#......",
"....#aaaaa#.....",
"...#aaaaaaa#....",
"..#a###a###a#...",
".#aa#.#a#.#aa#..",
"#aaa###a###aaa#.",
"aaaaaaaaaaaaaaa.",
"#aaa###a###aaa#.",
".#aa#.#a#.#aa#..",
"..#a###a###a#...",
"...#aaaaaaa#....",
"....#aaaaa#.....",
".....#aaa#......",
"......#a#.......",
"................"};
